<svg width="152" height="44" viewBox="0 0 152 44" fill="none" xmlns="http://www.w3.org/2000/svg">
<path d="M53.6703 0.00439453L40.4932 33.9259H35.9526L23.0513 0.00439453H27.5919L37.5403 26.664C37.6871 27.0436 37.816 27.4277 37.9228 27.825C38.0295 28.2179 38.1407 28.6461 38.2563 29.1008H38.3541C38.5365 28.5666 38.6832 28.1252 38.7989 27.7897C38.9145 27.4498 39.0568 27.0613 39.2213 26.6198L49.2187 0.00880667H53.6703V0.00439453Z" fill="#533C56"/>
<path d="M86.8108 33.926H81.701L63.3918 6.88673C63.125 6.50708 62.9382 6.23778 62.8226 6.07003C62.7069 5.90228 62.5513 5.67272 62.3512 5.37253H62.2044C62.2355 5.69038 62.2622 6.1804 62.28 6.85141C62.2978 7.52243 62.3067 8.37885 62.3067 9.41628V33.9215H58.1396V0H63.5386L81.3541 26.611C81.6699 27.0834 81.91 27.4586 82.0746 27.7367C82.2391 28.0104 82.4303 28.3327 82.6438 28.6947H82.7416C82.7061 28.2223 82.6838 27.5822 82.666 26.7788C82.6483 25.9753 82.6394 25.0129 82.6394 23.8916V0H86.8064V33.926H86.8108Z" fill="#533C56"/>
<path d="M95.4415 33.9303H91.2744V0.00878906H95.4415V33.9303Z" fill="#533C56"/>
<path d="M18.634 0H0.560547V4.1806H18.634V0Z" fill="#533C56"/>
<path d="M18.634 14.5504H0.560547V18.731H18.634V14.5504Z" fill="#533C56"/>
<path d="M118.02 15.1508H118.011V19.3314H118.02V15.1508Z" fill="#533C56"/>
<path d="M149.751 0.119216L138.481 21.446L138.281 21.8257V33.9304H134.07V22.0949L133.994 21.9537L133.727 21.4416L122.458 0.119216L122.645 0.0220947H127.159L135.6 15.9896L136.102 16.9431L136.605 15.9896L145.045 0.0220947H149.564L149.751 0.119216Z" fill="#99707E"/>
<path d="M118.011 0V33.9215H113.8V19.3314H99.9469V15.1508H113.8V4.1806H99.938V0H118.011Z" fill="#99707E"/>
<path d="M18.634 29.741H0.560547V33.9216H18.634V29.741Z" fill="#533C56"/>
<g opacity="0.5">
<path d="M2.70836 43.7749C2.53936 43.8543 2.37481 43.9117 2.21471 43.947C2.05462 43.9823 1.88117 44 1.69439 44C1.16962 44 0.756028 43.8366 0.453618 43.5144C0.151207 43.1921 0 42.7683 0 42.2386C0 41.6647 0.168996 41.2056 0.502537 40.8612C0.836079 40.5169 1.27191 40.3447 1.80557 40.3447C1.97012 40.3447 2.12132 40.358 2.26363 40.3889C2.40595 40.4198 2.5527 40.4639 2.69946 40.5301L2.5616 40.848C2.43263 40.7906 2.30811 40.7509 2.18803 40.7288C2.06796 40.7023 1.93454 40.6935 1.79668 40.6935C1.37864 40.6935 1.04065 40.8303 0.787159 41.104C0.533668 41.3777 0.404698 41.7486 0.404698 42.2165C0.404698 42.658 0.524773 43.0111 0.76937 43.2672C1.00952 43.5276 1.32972 43.6557 1.72552 43.6557C1.86783 43.6557 2.01014 43.638 2.14356 43.6071C2.28142 43.5762 2.41929 43.5276 2.55715 43.457L2.70836 43.7749Z" fill="#414042"/>
<path d="M12.999 43.9427H12.5454L11.9762 42.9361C11.8694 42.7463 11.7716 42.6183 11.6827 42.5565C11.5937 42.4947 11.487 42.4682 11.3625 42.4682H10.9533V43.9427H10.5664V40.411H11.6071C11.9184 40.411 12.1763 40.4905 12.3809 40.6538C12.5854 40.8172 12.6833 41.0511 12.6833 41.3602C12.6833 41.6074 12.6166 41.8193 12.4832 41.987C12.3497 42.1592 12.163 42.2784 11.9273 42.3446V42.3534C12.0029 42.3932 12.074 42.4461 12.1363 42.5079C12.1985 42.5697 12.2652 42.658 12.332 42.7728L12.999 43.9427ZM10.9533 40.7509V42.1239H11.527C11.7494 42.1239 11.9273 42.0577 12.0696 41.9252C12.2119 41.7928 12.283 41.6162 12.283 41.3955C12.283 41.1968 12.2208 41.0423 12.0962 40.9231C11.9717 40.8083 11.7894 40.7509 11.5492 40.7509H10.9533Z" fill="#414042"/>
<path d="M20.355 43.9427L21.7114 40.411H22.1072L23.468 43.9427H23.0366L22.672 42.9626H21.1332L20.7819 43.9427H20.355ZM21.2578 42.6227H22.543L21.9649 41.06C21.9515 41.0291 21.9382 40.9937 21.9293 40.9496C21.9204 40.9054 21.9115 40.8613 21.9026 40.8127H21.8937C21.8848 40.8657 21.8715 40.9099 21.8626 40.9496C21.8537 40.9893 21.8403 41.0246 21.827 41.0555L21.2578 42.6227Z" fill="#414042"/>
<path d="M32.963 40.751H31.5666V42.0179H32.8563V42.3578H31.5666V43.9383H31.1797V40.4066H32.9586V40.751H32.963Z" fill="#414042"/>
<path d="M42.9068 40.751H41.8795V43.9427H41.497V40.751H40.4697V40.4066H42.9112V40.751H42.9068Z" fill="#414042"/>
<path d="M52.7442 40.751H51.7169V43.9427H51.3344V40.751H50.3071V40.4066H52.7487V40.751H52.7442Z" fill="#414042"/>
<path d="M63.1413 43.9427H62.7589V42.3137H60.8732V43.9427H60.4863V40.411H60.8732V41.9738H62.7589V40.411H63.1413V43.9427Z" fill="#414042"/>
<path d="M73.1075 43.9427H71.2485V40.411H73.0274V40.7553H71.631V41.9826H72.9251V42.3269H71.631V43.6072H73.103V43.9427H73.1075Z" fill="#414042"/>
<path d="M84.5636 43.9427H84.1856V41.5456C84.1856 41.4705 84.1901 41.3778 84.1945 41.2674C84.199 41.1571 84.2079 41.0379 84.2212 40.901H84.2079C84.1856 40.9761 84.1678 41.0467 84.15 41.0997C84.1323 41.1571 84.1145 41.2012 84.0967 41.2366L82.8781 43.9427H82.6914L81.4773 41.2542C81.4595 41.2145 81.4372 41.1659 81.4239 41.1041C81.4106 41.0423 81.3883 40.9761 81.3705 40.8966H81.3572C81.3661 40.9717 81.3705 41.0644 81.375 41.1703C81.3794 41.2763 81.3794 41.3999 81.3794 41.5367V43.9427H81.0059V40.411H81.4862L82.6335 42.9671C82.6691 43.0421 82.7003 43.1127 82.7225 43.179C82.7492 43.2452 82.767 43.3026 82.7803 43.3555H82.7936C82.8248 43.2673 82.8514 43.1878 82.8781 43.1216C82.9048 43.0554 82.9271 42.998 82.9449 42.9494L84.1011 40.4066H84.5636V43.9427Z" fill="#414042"/>
<path d="M94.1164 44.0001C93.6139 44.0001 93.2092 43.8323 92.9067 43.5056C92.6043 43.1745 92.4531 42.7463 92.4531 42.2166C92.4531 41.6515 92.6088 41.2012 92.9156 40.8613C93.2269 40.5214 93.6494 40.3536 94.1831 40.3536C94.6723 40.3536 95.0681 40.517 95.3661 40.8436C95.6685 41.1703 95.8152 41.603 95.8152 42.1327C95.8152 42.711 95.6596 43.1657 95.3527 43.5012C95.0414 43.8323 94.6323 44.0001 94.1164 44.0001ZM94.1164 43.6601C94.5166 43.6601 94.8324 43.5321 95.0637 43.2717C95.2949 43.0112 95.4105 42.6492 95.4105 42.1813C95.4105 41.7133 95.2993 41.3469 95.0725 41.0864C94.8457 40.826 94.5389 40.698 94.1431 40.698C93.7606 40.698 93.4493 40.8348 93.2092 41.1085C92.969 41.3822 92.8489 41.7398 92.8489 42.1857C92.8489 42.6316 92.9646 42.9891 93.1958 43.2584C93.4315 43.5233 93.7384 43.6601 94.1164 43.6601Z" fill="#414042"/>
<path d="M107.262 43.9427H106.884V41.5456C106.884 41.4705 106.884 41.3778 106.893 41.2674C106.898 41.1571 106.907 41.0379 106.92 40.901H106.907C106.884 40.9761 106.867 41.0467 106.849 41.0997C106.831 41.1571 106.813 41.2012 106.796 41.2366L105.573 43.9427H105.386L104.172 41.2542C104.154 41.2145 104.132 41.1659 104.114 41.1041C104.096 41.0423 104.078 40.9761 104.06 40.8966H104.047C104.056 40.9717 104.06 41.0644 104.065 41.1703C104.069 41.2763 104.069 41.3999 104.069 41.5367V43.9427H103.696V40.411H104.176L105.323 42.9671C105.359 43.0421 105.39 43.1127 105.412 43.179C105.439 43.2452 105.457 43.3026 105.47 43.3555H105.484C105.515 43.2673 105.541 43.1878 105.568 43.1216C105.595 43.0554 105.617 42.998 105.635 42.9494L106.791 40.4066H107.254V43.9427H107.262Z" fill="#414042"/>
<path d="M117.224 43.9427H115.365V40.411H117.144V40.7553H115.748V41.9826H117.042V42.3269H115.748V43.6072H117.224V43.9427Z" fill="#414042"/>
<path d="M127.947 43.9427H127.52L125.621 41.1394C125.598 41.1041 125.576 41.0688 125.554 41.0291C125.532 40.9938 125.514 40.954 125.496 40.9099H125.483C125.487 40.9452 125.492 40.9937 125.496 41.06C125.501 41.1262 125.501 41.2101 125.501 41.3072V43.9383H125.118V40.4066H125.576L127.435 43.1701C127.466 43.2231 127.497 43.2672 127.524 43.307C127.551 43.3467 127.569 43.382 127.586 43.4085H127.595C127.586 43.3555 127.582 43.2937 127.577 43.2187C127.573 43.1436 127.573 43.0554 127.573 42.9538V40.411H127.955V43.9427H127.947Z" fill="#414042"/>
<path d="M138.139 40.751H137.112V43.9427H136.729V40.751H135.702V40.4066H138.144V40.751H138.139Z" fill="#414042"/>
</g>
</svg>
