<?xml version="1.0" encoding="iso-8859-1"?>
<!-- Generator: Adobe Illustrator 25.0.0, SVG Export Plug-In . SVG Version: 6.00 Build 0)  -->
<svg version="1.1" baseProfile="basic" id="Layer_1"
	 xmlns="http://www.w3.org/2000/svg" xmlns:xlink="http://www.w3.org/1999/xlink" x="0px" y="0px" viewBox="0 0 50 50"
	 xml:space="preserve">
<path d="M21.5,8C28.943,8,35,14.057,35,21.5S28.943,35,21.5,35S8,28.943,8,21.5S14.057,8,21.5,8z M21.5,34
	C28.392,34,34,28.392,34,21.5S28.392,9,21.5,9S9,14.608,9,21.5S14.608,34,21.5,34z"/>
<path d="M41.647,39.945c0.47,0.47,0.47,1.233,0,1.703c-0.47,0.47-1.233,0.47-1.703,0C39.709,41.412,30,31.703,30,31.703L31.703,30
	C31.703,30,41.412,39.709,41.647,39.945z"/>
</svg>